<svg id="Layer_1" data-name="Layer 1" xmlns="http://www.w3.org/2000/svg" xmlns:xlink="http://www.w3.org/1999/xlink" viewBox="0 0 3139.64 463.58"><defs><style>.cls-1,.cls-13,.cls-2{fill:none;}.cls-1,.cls-13{stroke:#1d1d1b;}.cls-1{stroke-miterlimit:10;stroke-width:0.1px;}.cls-3{fill:#008cbe;}.cls-4{clip-path:url(#clip-path);}.cls-5{clip-path:url(#clip-path-2);}.cls-6{clip-path:url(#clip-path-3);}.cls-7{clip-path:url(#clip-path-4);}.cls-8{clip-path:url(#clip-path-5);}.cls-9{clip-path:url(#clip-path-6);}.cls-10{clip-path:url(#clip-path-7);}.cls-11{fill:#fff;}.cls-12{fill:#1d1d1b;}.cls-13{stroke-width:0.88px;}</style><clipPath id="clip-path" transform="translate(-6.41)"><polygon class="cls-1" points="1003.53 463.45 1205.26 230.86 1004.14 0.13 1003.53 463.45"/></clipPath><clipPath id="clip-path-2" transform="translate(-6.41)"><polygon class="cls-2" points="1310.02 447.57 1420.42 222.96 1310.36 0.13 1310.02 447.57"/></clipPath><clipPath id="clip-path-3" transform="translate(-6.41)"><polygon class="cls-3" points="1391.03 447.57 1446.23 222.96 1391.2 0.13 1391.03 447.57"/></clipPath><clipPath id="clip-path-4" transform="translate(-6.41)"><polygon class="cls-2" points="1455.7 447.57 1566.08 222.96 1456.04 0.13 1455.7 447.57"/></clipPath><clipPath id="clip-path-5" transform="translate(-6.41)"><polygon class="cls-2" points="1548.94 463.45 1692.68 230.86 1549.38 0.13 1548.94 463.45"/></clipPath><clipPath id="clip-path-6" transform="translate(-6.41)"><polygon class="cls-3" points="1205.49 463.45 1349.24 230.86 1205.93 0.13 1205.49 463.45"/></clipPath><clipPath id="clip-path-7" transform="translate(-6.41)"><polygon class="cls-2" points="1691.85 463.45 1893.58 230.86 1692.47 0.13 1691.85 463.45"/></clipPath></defs><title>logo</title><g class="cls-4"><rect class="cls-3" x="997.11" y="0.13" width="201.74" height="463.32"/></g><polygon class="cls-1" points="997.11 463.45 1198.85 230.86 997.73 0.13 997.11 463.45"/><g class="cls-5"><rect class="cls-3" x="1303.6" y="0.13" width="110.4" height="447.44"/></g><polygon class="cls-3" points="1384.62 447.57 1439.82 222.96 1384.79 0.13 1384.62 447.57"/><g class="cls-6"><rect class="cls-3" x="1384.62" y="0.13" width="55.2" height="447.44"/></g><g class="cls-7"><rect class="cls-3" x="1449.29" y="0.13" width="110.38" height="447.44"/></g><g class="cls-8"><rect class="cls-3" x="1542.53" y="0.13" width="143.74" height="463.32"/></g><polygon class="cls-3" points="1199.08 463.45 1342.82 230.86 1199.52 0.13 1199.08 463.45"/><g class="cls-9"><rect class="cls-3" x="1199.08" y="0.13" width="143.74" height="463.32"/></g><g class="cls-10"><rect class="cls-3" x="1685.44" y="0.13" width="201.73" height="463.32"/></g><path class="cls-11" d="M1586.16,232.76a173.9,173.9,0,1,1-173.9-173.89,173.88,173.88,0,0,1,173.9,173.89" transform="translate(-6.41)"/><path class="cls-12" d="M1596.09,232.76c0,101.52-82.31,183.81-183.83,183.81s-183.83-82.29-183.83-183.81,82.31-183.82,183.83-183.82,183.83,82.3,183.83,183.82m-183.83-159a159,159,0,1,0,112.41,46.56,158.45,158.45,0,0,0-112.41-46.56" transform="translate(-6.41)"/><path class="cls-13" d="M1596.09,232.76c0,101.52-82.31,183.81-183.83,183.81s-183.83-82.29-183.83-183.81,82.31-183.82,183.83-183.82S1596.09,131.24,1596.09,232.76Zm-183.83-159a159,159,0,1,0,112.41,46.56A158.45,158.45,0,0,0,1412.26,73.77Z" transform="translate(-6.41)"/><path class="cls-12" d="M1412.41,392.72c-36.7-36.28-60.47-94.43-60.47-160,0-65.29,23.6-123.23,60-159.54l-23.15,3c-37.58,37.31-61.51,93.6-61.51,156.62s24.07,119.62,61.84,156.93Z" transform="translate(-6.41)"/><path class="cls-13" d="M1412.41,392.72c-36.7-36.28-60.47-94.43-60.47-160,0-65.29,23.6-123.23,60-159.54l-23.15,3c-37.58,37.31-61.51,93.6-61.51,156.62s24.07,119.62,61.84,156.93Z" transform="translate(-6.41)"/><path class="cls-12" d="M1411,392.72c36.69-36.28,60.47-94.43,60.47-160,0-65.29-23.6-123.23-60.06-159.54l23.16,3c37.57,37.31,61.5,93.6,61.5,156.62S1472,352.42,1434.26,389.73Z" transform="translate(-6.41)"/><path class="cls-13" d="M1411,392.72c36.69-36.28,60.47-94.43,60.47-160,0-65.29-23.6-123.23-60.06-159.54l23.16,3c37.57,37.31,61.5,93.6,61.5,156.62S1472,352.42,1434.26,389.73Z" transform="translate(-6.41)"/><rect class="cls-12" x="1256.87" y="148.22" width="297.95" height="22.34"/><rect class="cls-13" x="1256.87" y="148.22" width="297.95" height="22.34"/><rect class="cls-12" x="1256.87" y="295.43" width="297.95" height="22.35"/><rect class="cls-13" x="1256.87" y="295.43" width="297.95" height="22.35"/><path class="cls-12" d="M777,310.63c13.67,14.83,32.28,22.69,44.79,22.69,24.72,0,33.15-10.18,33.15-29.38V293.76h-.58c-8.43,11.06-22.39,14-32.28,14-34.32,0-56.13-16.29-56.13-79.11,0-43.34,18.9-76.49,65.44-76.49,15.7,0,26.75,4.65,34.61,16.87h.58c0-4.37,3.2-10.18,7-13.67h42.17c-7.56,7.27-12.8,17.74-12.8,33.73v99.76c0,50.61-21.52,77.65-64.56,77.65-28.51,0-44.21-5.23-51.19-5.23A16.58,16.58,0,0,0,777,364.73ZM855.83,207.1c0-11.93-5.82-18.33-16.87-18.33-14,0-20.65,9.89-20.65,41.3,0,33.45,6.69,41,18.61,41,11.05,0,18.91-6.11,18.91-23.85Z" transform="translate(-6.41)"/><path class="cls-12" d="M13.27,175.82c0-14.28.29-27.14-.85-44.86-.86-16.55-2.29-19.69-6-26.26,2.29,0,7.43.28,14.29.56,6.85,0,15.14.29,23.7.29s17.42-.29,25.14-.57c7.71,0,14.28-.28,18.28-.28,15.42,0,34,.85,49.7,10.56,19.13,11.71,34.55,35.42,34.55,86,0,16.27-1.71,46-12.84,67.13-17.43,34-50.56,38.55-78.26,38.55-15.43,0-34.28-1.44-54-.87l-19.14.87c4.29-11.44,6-16.28,5.43-79.4Zm54,44.26c0,14.28,0,30.57.57,39.71.86,9.43,5.15,11.42,14,11.42,28.85,0,33.13-23.71,33.13-64.27,0-48.84-6.28-68-34-68-6,0-10,.58-12.57.58-.58,10.29-.86,16.85-1.15,42.28Z" transform="translate(-6.41)"/><path class="cls-12" d="M230.63,240.37c.29,22,8,37.43,36.84,37.43,20,0,29.14-6.29,33.71-9.43-4.57,16.85-5.15,26.84-4.86,38a171.78,171.78,0,0,1-34.84,3.14c-38,0-78.84-8.57-78.84-82.27,0-10,0-39.7,18.57-58.55,15.71-16,36.56-16.85,46.27-16.85,49.13,0,57.7,33.7,57.7,72.55v16Zm30-26.57c.28-16.56.57-34.85-14.86-34.85-16.27,0-16.27,20.57-16.27,34.85Z" transform="translate(-6.41)"/><path class="cls-12" d="M444.55,251.21c0,20.57-3.71,58-71.69,58-12.85,0-17.7-.85-27.13-2.84,2-8.58,4.86-18.86,5.43-43.13a32.47,32.47,0,0,0,17.71,5.42c20.56,0,20.56-15.42,20.56-28V178.39c-1.14-59.41-1.14-61.14-9.71-74.27,4.85.3,9.14.86,14.28,1.14s11.14.57,18.56.57c16.57,0,27.14-.85,37.14-1.71-2.29,3.43-3.43,6-4.86,11.71-1.42,7.43-1.72,21.13-1.72,34.56Z" transform="translate(-6.41)"/><path class="cls-12" d="M531.66,309.19c-34,0-69.4-12.55-69.4-76.53,0-40.85,12.28-80.55,70.55-80.55,62,0,69.41,43.42,68.55,78.54-.57,30.57-8.28,78.54-69.7,78.54m.87-131.38c-13.71,0-15.72,12-16.86,17.72-2.28,14.84-2.28,31.41-2.28,47.12,0,31.43,2.56,42,18.27,42,12.86,0,18-4.57,18.29-54.56.28-42-2.57-52.27-17.42-52.27" transform="translate(-6.41)"/><path class="cls-12" d="M749.31,265.23c0,18.27.57,24.84,1.14,29.69a33.08,33.08,0,0,0,3.72,12.28c-8-.57-15.43-1.72-30.85-1.72-12.86,0-18.85.57-26.56,1.72,2.28-4,3.13-14.86,3.13-39.41V218.66c-.28-18-.28-30.57-16-30.57-17.72,0-17.72,15.71-17.72,28v42.55c0,24.27-.28,42.56,3.15,48.56-8.28-.57-13.71-1.72-27.71-1.72-10.85,0-20,1.15-28.27,1.72,2.86-4.85,4.57-17.7,4.57-37.42,0-27.13,0-69.69-1.43-92.53-1.72-11.72-4.29-14-8.85-17.72,10.28,0,24.27-1.71,36.83-3.72a104.13,104.13,0,0,0,21.71-6v30.56c4.29-8.86,13.14-28.57,45.14-28.57,37.69,0,38,29.42,38,45.71Z" transform="translate(-6.41)"/><path class="cls-12" d="M2147,224.08c.57,24,.87,34.86,1.43,48.57.86,12,1.43,24.84,5.73,34.55-10.3-.57-18.58-1.72-35.15-1.72a249,249,0,0,0-28.83,1.72c2-5.13,2.86-7.71,3.69-15.42,2-16.85,3.72-73.11,3.72-109.69l-.27-16.27c-2.58,10-5.46,23.14-15.44,52.85l-9.14,28.55c-12.28,41.14-13.71,45.7-15.72,59.13-4.56-.3-9.13-.58-14-.58-4.57,0-8.56.28-13.42.58-1.71-10.29-2.85-14.29-12.86-50.86l-12.27-44.82c-6-19.73-7.44-25.15-12.28-45.7-.86,10.85-.86,18.27-1.14,45.12v11.42c0,25.14-1.44,50,.28,71.13.58,7.42,1.42,9.71,3.43,14.56-8.85-1.43-15.14-1.72-26.28-1.72a195.25,195.25,0,0,0-29.13,1.72c2.56-5.43,3.72-8.56,5.14-17.13,3.15-19.43,4.28-38.86,6.28-105.11l1.15-36.57c0-30.56-.3-34.28-5.73-44.27,4.58.3,9.72.86,16.58,1.14,7.14.57,16,.86,27.41.86a269.77,269.77,0,0,0,36-2c2.57,14.57,3.43,17.15,8.86,42,3.71,15.43,4.87,20.28,16.29,64.56,10.85-35.14,21.13-70.55,28.27-106.55,4,.3,9.41.86,16.28,1.14,6.85.57,15.14.86,24.27.86a228.84,228.84,0,0,0,32-2c-4.58,10.57-4.86,24.57-5.15,37.42-.57,22.29-.57,27.71-.57,47.13Z" transform="translate(-6.41)"/><path class="cls-12" d="M2286.35,254.92c0,21.72,0,27.16.29,31.71.57,12.57,2.3,16,4.86,20.57-11.72-.85-19.7-1.43-27.71-1.43a194.86,194.86,0,0,0-24,1.43c-.86-9.14-.86-12.28-.58-26.85-3.14,9.43-9.13,28-36.27,28-6.28,0-18-.85-26.86-12-7.42-9.43-10-23.7-10-34.85,0-45.13,38.27-50.83,60-50.83,4.85,0,7.71.28,11.43.55,0-14,0-16.54-2.3-20s-7.7-4.3-12-4.3a55.33,55.33,0,0,0-37.14,14.29c-4-14.57-6.56-22-13.7-35.14,17.42-10,37.4-14.28,57.69-14.28,16,0,33.7,3.43,44,12.29,12.56,11.14,12.56,22.84,12.27,54.26Zm-61.13,17.15c12.86,0,12.86-14.85,12.86-39.41a33.31,33.31,0,0,0-8-.58c-14.56,0-16.85,13.72-16.85,20.85,0,3.43,0,19.14,12,19.14" transform="translate(-6.41)"/><path class="cls-12" d="M2358.91,197c5.12-15.13,14.84-40.83,52.82-46.27-6,24.27-6.83,40-7.13,49.41a26.92,26.92,0,0,0-12-2.56c-16.86,0-24,10-25.43,11.71-5.42,7.7-7.43,16-7.43,59.69,0,12.57,0,27.71,4,38.27a190.77,190.77,0,0,0-26.85-1.72,262.74,262.74,0,0,0-29.42,1.72c3.15-10,4-32.85,4-46v-44c0-17.15,0-28.57-.86-38.85-.86-12.85-3.72-15.71-7.14-19.14,25.42.28,38.28-1.43,58.84-9.42Z" transform="translate(-6.41)"/><path class="cls-12" d="M2480.29,307.2a166.24,166.24,0,0,0-26.56-1.72,319.91,319.91,0,0,0-34,1.72c3.43-5.71,4.85-8.56,5.7-28,.87-21.71,1.43-53.7-.28-88-1.14-22.29-4-26-10-31.72,31.7-1.13,42.55-2,62-10-2,13.7-2.57,37.13-2.57,64.55,0,64.54,1.14,81.12,5.72,93.11m-30.84-164.8c-11.72,0-24.29-5.71-24.29-22.86,0-13.42,7.15-23.7,24-23.7,13.68,0,23.11,6.85,23.69,21.41.86,18.29-9.71,25.15-23.41,25.15" transform="translate(-6.41)"/><path class="cls-12" d="M2631.94,265.23c0,18.27.59,24.84,1.15,29.69a33.08,33.08,0,0,0,3.72,12.28c-8-.57-15.44-1.72-30.86-1.72-12.84,0-18.84.57-26.55,1.72,2.28-4,3.14-14.86,3.14-39.41V218.66c-.29-18-.29-30.57-16-30.57-17.72,0-17.72,15.71-17.72,28v42.55c0,24.27-.27,42.56,3.16,48.56-8.28-.57-13.72-1.72-27.7-1.72-10.86,0-20,1.15-28.29,1.72,2.86-4.85,4.57-17.7,4.57-37.42,0-27.13,0-69.69-1.43-92.53-1.7-11.72-4.28-14-8.84-17.72,10.27,0,24.27-1.71,36.85-3.72a104,104,0,0,0,21.68-6v30.56c4.3-8.86,13.15-28.57,45.14-28.57,37.69,0,38,29.42,38,45.71Z" transform="translate(-6.41)"/><path class="cls-12" d="M2696.49,240.37c.29,22,8,37.43,36.85,37.43,20,0,29.13-6.29,33.71-9.43-4.58,16.85-5.16,26.84-4.86,38a171.69,171.69,0,0,1-34.84,3.14c-38,0-78.84-8.57-78.84-82.27,0-10,0-39.7,18.56-58.55,15.72-16,36.55-16.85,46.28-16.85,49.12,0,57.68,33.7,57.68,72.55v16Zm30-26.57c.27-16.56.57-34.85-14.86-34.85-16.27,0-16.27,20.57-16.27,34.85Z" transform="translate(-6.41)"/><path class="cls-12" d="M2837.89,221.22c.27,32.28.27,46,1.13,60.57.59,14.56,2,19.13,4.57,25.41a222.71,222.71,0,0,0-27.7-1.43,312.37,312.37,0,0,0-32.56,1.43c2-6.28,3.72-11.43,4.28-29.4.27-11.74.27-23.73.27-34.58V190.38c0-25.14-.27-41.41-1.12-54-1.72-18.57-5.73-23.12-10-28.27,36.57-.87,52.27-7.15,64.84-12.29-3.44,15.14-4.28,23.42-3.71,65.12Z" transform="translate(-6.41)"/><path class="cls-12" d="M2920.71,307.2a166.24,166.24,0,0,0-26.56-1.72,319.91,319.91,0,0,0-34,1.72c3.42-5.71,4.86-8.56,5.7-28,.86-21.71,1.44-53.7-.28-88-1.13-22.29-4-26-10-31.72,31.69-1.13,42.57-2,62-10-2,13.7-2.57,37.13-2.57,64.55,0,64.54,1.13,81.12,5.7,93.11m-30.85-164.8c-11.71,0-24.28-5.71-24.28-22.86,0-13.42,7.14-23.7,24-23.7,13.7,0,23.13,6.85,23.7,21.41.86,18.29-9.7,25.15-23.42,25.15" transform="translate(-6.41)"/><path class="cls-12" d="M2996.11,229c.29,54.83.29,67.69,4.56,78.25a303.86,303.86,0,0,0-32-1.43,176.12,176.12,0,0,0-24.56,1.43c2-5.71,2.86-8.56,3.14-22.85v-90h-5.13c-4,0-7.71,0-12.86.31a148.47,148.47,0,0,0,.85-15.44,120.51,120.51,0,0,0-.85-15.7A104.78,104.78,0,0,0,2947,165c0-21.71-.29-34,8.28-46.28,14.27-20.86,46.28-23.42,59.41-23.42,5.13,0,9.13.28,15.42.85-3.44,11.14-5.14,17.71-7.13,36a18.49,18.49,0,0,0-8.29-1.72c-19.42,0-19.42,12.86-19.13,34.26h12.27c5.14,0,10-.83,11.15-2-.28,5.43-.57,9.43-.57,16,0,4,.29,11.41.57,15.42a165.26,165.26,0,0,0-19.43-.86h-3.14Z" transform="translate(-6.41)"/><path class="cls-12" d="M3071.52,240.37c.28,22,8,37.43,36.85,37.43,20,0,29.13-6.29,33.7-9.43-4.57,16.85-5.15,26.84-4.87,38a171.69,171.69,0,0,1-34.84,3.14c-38,0-78.83-8.57-78.83-82.27,0-10,0-39.7,18.56-58.55,15.72-16,36.56-16.85,46.28-16.85,49.13,0,57.68,33.7,57.68,72.55v16Zm30-26.57c.28-16.56.58-34.85-14.85-34.85-16.29,0-16.29,20.57-16.29,34.85Z" transform="translate(-6.41)"/></svg>